<?xml version="1.0" encoding="utf-8"?>
<!-- Generator: Adobe Illustrator 22.1.0, SVG Export Plug-In . SVG Version: 6.00 Build 0)  -->
<svg version="1.1" xmlns="http://www.w3.org/2000/svg" xmlns:xlink="http://www.w3.org/1999/xlink" x="0px" y="0px"
	 viewBox="0 0 800 800" style="enable-background:new 0 0 800 800;" xml:space="preserve">
<style type="text/css">
	.st0{fill:#F15A29;}
	.st1{fill:#EF4136;}
	.st2{fill:#F7941D;}
</style>
<g id="bg">
</g>
<g id="orange">
	<g>
		<g>
			<path class="st0" d="M183.7,300.8c-5.4,1.6-10.8,3.1-16.3,4.5c-7.3-4.4-14.6-9.2-21.7-14.4c5.5-0.9,11-1.9,16.5-3
				C169.3,292.6,176.5,296.9,183.7,300.8z"/>
		</g>
		<g>
			<path class="st0" d="M722.4,4.6c1,6.1,2,12.2,2.8,18.3c-5.7,7.4-11.9,14.7-18.5,21.7c-0.3-6.1-0.7-12.3-1.2-18.4
				C711.6,19.2,717.2,12,722.4,4.6z"/>
		</g>
		<g>
			<path class="st0" d="M675.3,153c-1.4,1.3-2.9,2.5-4.4,3.7c-2.9-0.3-5.8-0.7-8.8-1.3c1.6-1.1,3.1-2.2,4.7-3.3
				C669.7,152.6,672.5,152.9,675.3,153z"/>
		</g>
		<g>
			<path class="st0" d="M387,280c-3.6,0.3-7.2,0.4-10.9,0.6c-4-3.8-7.9-7.8-11.6-12c3.6,0.2,7.2,0.3,10.8,0.4
				C379.1,272.9,383,276.6,387,280z"/>
		</g>
		<g>
			<path class="st1" d="M618.1,94.8c-2.4-0.1-4.7-0.3-7.1-0.5c-2.3-2.8-4.4-5.7-6.5-8.8c2.3,0.4,4.6,0.8,7,1.1
				C613.6,89.5,615.8,92.2,618.1,94.8z"/>
		</g>
		<g>
			<path class="st0" d="M519.6,40.8c-4.8-2.2-9.5-4.4-14.3-6.8c-2.5-7.6-4.7-15.4-6.5-23.4c4.5,2.7,9,5.4,13.5,8
				C514.5,26.2,516.9,33.6,519.6,40.8z"/>
		</g>
		<g>
			<path class="st0" d="M474.7,180.8c-0.1,6.4-0.3,12.9-0.7,19.4c-7.3,6.5-15,12.8-23.2,18.8c0.9-6.4,1.7-12.7,2.4-19.1
				C460.8,193.8,468,187.4,474.7,180.8z"/>
		</g>
		<g>
			<path class="st0" d="M426.4,8.7c-1.7,3.6-3.5,7.1-5.3,10.7c-5.7,1.8-11.6,3.3-17.7,4.6c2.1-3.3,4.2-6.7,6.2-10.1
				C415.3,12.4,421,10.7,426.4,8.7z"/>
		</g>
		<g>
			<path class="st0" d="M379.3,181.9c-5.2-2-10.4-4-15.5-6.2c-3.1-7.8-6-15.9-8.4-24.3c4.9,2.6,9.8,5.1,14.8,7.5
				C372.9,166.9,375.9,174.6,379.3,181.9z"/>
		</g>
		<g>
			<path class="st0" d="M324.8,137.3c-4.6-1.2-9.1-2.4-13.7-3.7c-3.4-6.3-6.6-12.8-9.5-19.6c4.4,1.7,8.8,3.3,13.2,4.9
				C317.9,125.3,321.2,131.4,324.8,137.3z"/>
		</g>
		<g>
			<path class="st0" d="M269.3,72.7c-0.2,1.5-0.5,2.9-0.8,4.4c-1.9,1.2-3.8,2.4-5.9,3.5c0.4-1.4,0.8-2.8,1.2-4.3
				C265.7,75.2,267.5,73.9,269.3,72.7z"/>
		</g>
		<g>
			<path class="st0" d="M225.5,89.7c-1.5,3-3,6-4.6,9c-4.9,1.5-9.9,2.7-15.1,3.8c1.8-2.8,3.6-5.7,5.3-8.5
				C216.1,92.7,220.9,91.3,225.5,89.7z"/>
		</g>
		<g>
			<path class="st0" d="M180.4,110.7c-5.1-3.3-10.2-6.8-15.2-10.3c-1.5-9.1-2.6-18.5-3.3-28c4.7,3.9,9.4,7.8,14.1,11.5
				C177,93,178.5,102,180.4,110.7z"/>
		</g>
		<g>
			<path class="st0" d="M69.2,165c-0.8,3-1.7,6-2.6,9c-4.2,2.2-8.5,4.2-13.1,6c1.2-2.9,2.3-5.8,3.4-8.6
				C61.2,169.4,65.3,167.3,69.2,165z"/>
		</g>
		<g>
			<path class="st0" d="M717.8,228.7c-3.9,0.3-7.8,0.6-11.7,0.8c-4.4-4-8.6-8.2-12.7-12.7c3.9,0.1,7.8,0.2,11.6,0.2
				C709.2,221.2,713.5,225.1,717.8,228.7z"/>
		</g>
		<g>
			<path class="st0" d="M664.3,229.9c-4.8,1.1-9.6,2.2-14.4,3.1c-6.2-4.2-12.2-8.7-18.2-13.6c4.9-0.5,9.7-1.1,14.6-1.8
				C652.1,222,658.2,226.1,664.3,229.9z"/>
		</g>
		<g>
			<path class="st0" d="M616.7,225.9c-2.7,5.5-5.5,11-8.4,16.5c-8.9,2.7-18.1,5-27.6,6.9c3.3-5.1,6.6-10.3,9.7-15.6
				C599.5,231.4,608.2,228.8,616.7,225.9z"/>
		</g>
		<g>
			<path class="st0" d="M561.2,323.3c-4.5-0.4-9-0.8-13.6-1.3c-4.2-5.4-8.3-11.1-12.1-17.1c4.4,0.9,8.9,1.7,13.3,2.5
				C552.7,313,556.9,318.3,561.2,323.3z"/>
		</g>
		<g>
			<path class="st0" d="M512.1,333.5c-0.6,2-1.2,3.9-1.9,5.9c-2.8,1.3-5.7,2.6-8.7,3.7c0.8-1.9,1.6-3.7,2.4-5.6
				C506.7,336.3,509.4,335,512.1,333.5z"/>
		</g>
		<g>
			<path class="st0" d="M468.4,135c-0.5,1.4-1,2.8-1.5,4.1c-2,0.9-4.1,1.7-6.3,2.4c0.6-1.3,1.2-2.6,1.8-4
				C464.5,136.8,466.5,136,468.4,135z"/>
		</g>
		<g>
			<path class="st0" d="M442.1,133.3c-3.1,5.5-6.3,11-9.6,16.5c-9.4,2.2-19,4.1-28.9,5.5c3.7-5.1,7.4-10.3,11-15.5
				C424,138.1,433.2,135.9,442.1,133.3z"/>
		</g>
		<g>
			<path class="st0" d="M380.4,47.8c-0.7,2.8-1.5,5.6-2.3,8.4c-3.9,2.1-7.9,4-12.1,5.7c1.1-2.7,2.1-5.4,3.1-8.1
				C373,52,376.8,49.9,380.4,47.8z"/>
		</g>
		<g>
			<path class="st0" d="M322.7,292.5c-1,1.8-2.1,3.6-3.2,5.5c-3.1,0.7-6.3,1.3-9.6,1.8c1.2-1.7,2.5-3.4,3.7-5.1
				C316.7,294,319.8,293.3,322.7,292.5z"/>
		</g>
		<g>
			<path class="st0" d="M248.1,279.1c-0.1,3.7-0.2,7.3-0.4,11c-4.2,3.7-8.6,7.2-13.2,10.6c0.5-3.6,1-7.2,1.4-10.8
				C240.2,286.4,244.3,282.9,248.1,279.1z"/>
		</g>
		<g>
			<path class="st0" d="M258.6,186.5c-2.6-1.2-5.3-2.5-7.9-3.8c-1.3-4.2-2.5-8.5-3.5-13c2.5,1.5,4.9,3,7.4,4.5
				C255.8,178.4,257.1,182.6,258.6,186.5z"/>
		</g>
		<g>
			<path class="st0" d="M179.6,220c-2.8,2.6-5.7,5.1-8.6,7.7c-5.8-0.5-11.7-1.2-17.6-2.3c3.1-2.2,6.2-4.5,9.2-6.8
				C168.3,219.4,174,219.8,179.6,220z"/>
		</g>
		<g>
			<path class="st0" d="M126.8,104.4c0.7,2,1.4,3.9,2.1,5.9c-1.5,2.8-3.1,5.6-4.8,8.4c-0.5-2-1-4.1-1.5-6.1
				C124.1,109.9,125.5,107.1,126.8,104.4z"/>
		</g>
		<g>
			<path class="st0" d="M83.7,153.8c-2.2-1-4.5-2-6.7-3.1c-1.2-3.5-2.3-7.1-3.1-10.9c2.1,1.2,4.2,2.5,6.3,3.6
				C81.2,147.1,82.4,150.5,83.7,153.8z"/>
		</g>
		<g>
			<path class="st0" d="M120.6,76.8c-3.7,1.6-7.4,3.1-11.2,4.6c-5.6-2.5-11.1-5.3-16.6-8.4c3.9-1.1,7.7-2.3,11.5-3.5
				C109.7,72.2,115.1,74.7,120.6,76.8z"/>
		</g>
		<g>
			<path class="st0" d="M21.1,293.1c0.9,3.6,1.7,7.3,2.4,11c-3.2,4.7-6.6,9.3-10.3,13.8c-0.4-3.7-0.9-7.4-1.4-11
				C15.1,302.4,18.3,297.8,21.1,293.1z"/>
		</g>
		<g>
			<path class="st1" d="M791.4,145.3c-0.4,2.5-0.8,5-1.2,7.5c-3.2,2.1-6.5,4.2-9.9,6.1c0.7-2.4,1.3-4.8,1.9-7.3
				C785.4,149.6,788.5,147.5,791.4,145.3z"/>
		</g>
		<g>
			<path class="st0" d="M737.3,71.2c-2,0.6-4,1.2-6.1,1.8c-2.8-1.6-5.5-3.4-8.2-5.3c2.1-0.4,4.1-0.8,6.2-1.2
				C731.8,68.2,734.6,69.8,737.3,71.2z"/>
		</g>
		<g>
			<path class="st0" d="M679.4,29.2c-2.7-1.2-5.4-2.5-8.1-3.8c-1.4-4.3-2.7-8.7-3.8-13.3c2.6,1.5,5.1,3,7.7,4.5
				C676.4,20.9,677.8,25.1,679.4,29.2z"/>
		</g>
		<g>
			<path class="st0" d="M631.4,221.1c1,2.6,2,5.3,2.9,8c-1.9,3.8-4,7.7-6.3,11.4c-0.7-2.7-1.4-5.5-2.2-8.1
				C627.9,228.7,629.7,224.9,631.4,221.1z"/>
		</g>
		<g>
			<path class="st0" d="M592.5,17.9c-1.9,0.9-3.8,1.8-5.7,2.7c-3-1.1-5.9-2.4-8.9-3.9c2-0.7,3.9-1.4,5.9-2.2
				C586.7,15.9,589.6,17,592.5,17.9z"/>
		</g>
		<g>
			<path class="st0" d="M528.5,172.2c-0.9,4.9-1.9,9.9-3,14.8c-6.5,4-13.2,7.9-20.2,11.4c1.5-4.8,2.9-9.6,4.3-14.4
				C516.1,180.4,522.4,176.4,528.5,172.2z"/>
		</g>
		<g>
			<path class="st0" d="M477.8,157.7c-5.8,0.6-11.6,1.1-17.4,1.5c-6.6-5.8-13-12-19.3-18.7c5.8,0.1,11.6,0.1,17.3,0
				C464.8,146.7,471.2,152.4,477.8,157.7z"/>
		</g>
		<g>
			<path class="st0" d="M428,133c-5.7,0.7-11.4,1.3-17.1,1.9c-6.6-5.6-13.1-11.6-19.4-18c5.7,0,11.4-0.1,17.1-0.3
				C414.9,122.5,421.4,128,428,133z"/>
		</g>
		<g>
			<path class="st0" d="M419.1,229.9c-4.7,1.1-9.5,2.1-14.3,3.1c-6.1-4.1-12.1-8.6-18-13.5c4.8-0.5,9.6-1.1,14.4-1.8
				C407.1,222.1,413.1,226.1,419.1,229.9z"/>
		</g>
		<g>
			<path class="st0" d="M319,162.6c-2,2.2-4.1,4.4-6.1,6.6c-4.6,0.1-9.2-0.1-13.9-0.5c2.3-2,4.5-4,6.7-6
				C310.1,163,314.6,162.9,319,162.6z"/>
		</g>
		<g>
			<path class="st2" d="M235.7,7.9c-3.2,5.9-6.6,11.7-10,17.5c-9.9,2.4-20,4.4-30.4,6c3.9-5.4,7.7-10.9,11.4-16.4
				C216.7,13.1,226.3,10.7,235.7,7.9z"/>
		</g>
		<g>
			<path class="st0" d="M203.9,59.1c-1.8,0.5-3.6,1-5.5,1.5c-2.4-1.5-4.9-3.1-7.2-4.9c1.9-0.3,3.7-0.6,5.6-1
				C199.1,56.3,201.5,57.7,203.9,59.1z"/>
		</g>
		<g>
			<path class="st0" d="M166.7,141.5c-4.9-0.7-9.8-1.6-14.7-2.5c-4.2-6.2-8.2-12.7-11.9-19.5c4.8,1.3,9.5,2.6,14.3,3.7
				C158.3,129.6,162.4,135.7,166.7,141.5z"/>
		</g>
		<g>
			<path class="st0" d="M60.9,260.1c-3.4-2.1-6.7-4.2-10-6.4c-1.2-5.9-2.1-11.9-2.7-18c3.1,2.4,6.2,4.8,9.3,7.2
				C58.4,248.8,59.5,254.5,60.9,260.1z"/>
		</g>
		<g>
			<path class="st0" d="M38.4,10.8c1.2,4.9,2.3,9.9,3.4,14.9C37.6,32.1,33,38.4,28,44.6c-0.6-5-1.3-10-2.1-15
				C30.5,23.4,34.6,17.2,38.4,10.8z"/>
		</g>
		<g>
			<path class="st2" d="M51.5,72.1c-1.9-0.2-3.8-0.5-5.7-0.7c-1.7-2.3-3.3-4.8-4.9-7.3c1.8,0.4,3.7,0.8,5.5,1.2
				C48.1,67.7,49.8,70,51.5,72.1z"/>
		</g>
		<g>
			<path class="st2" d="M120,35c-6.3-0.3-12.5-0.8-18.8-1.3c-6-7.3-11.8-15.1-17.4-23.2c6.1,1.1,12.3,2.1,18.4,3
				C107.9,21,113.8,28.2,120,35z"/>
		</g>
		<g>
			<path class="st2" d="M164.7,170c-3.7,0.4-7.4,0.8-11.1,1.2c-4.3-3.6-8.5-7.5-12.5-11.7c3.7,0,7.4-0.1,11-0.2
				C156.3,163.1,160.5,166.7,164.7,170z"/>
		</g>
		<g>
			<path class="st2" d="M258.9,89.3c-3.3,3.3-6.6,6.5-9.9,9.7c-7-0.2-14.1-0.8-21.3-1.8c3.6-2.9,7.2-5.8,10.7-8.7
				C245.3,89.1,252.1,89.4,258.9,89.3z"/>
		</g>
		<g>
			<path class="st2" d="M353.5,108.3c-4.4,3.2-8.9,6.3-13.5,9.4c-8.1-1.7-16.3-3.7-24.5-6.2c4.8-2.6,9.5-5.3,14.2-8.1
				C337.7,105.5,345.6,107.1,353.5,108.3z"/>
		</g>
		<g>
			<path class="st2" d="M498.8,107.3c-4.7,1.7-9.5,3.2-14.4,4.7c-6.7-3.6-13.4-7.6-20-11.9c4.9-1.1,9.8-2.2,14.6-3.4
				C485.6,100.6,492.2,104.1,498.8,107.3z"/>
		</g>
		<g>
			<path class="st2" d="M542.6,227.7c-3-0.7-6.1-1.5-9.1-2.4c-2.3-4.1-4.4-8.5-6.4-12.9c2.9,1.1,5.8,2.1,8.8,3.1
				C537.9,219.8,540.2,223.8,542.6,227.7z"/>
		</g>
		<g>
			<path class="st2" d="M593.2,193.6c-0.6,4.9-1.3,9.9-2.1,14.8c-6.2,4.4-12.6,8.5-19.4,12.4c1.2-4.8,2.4-9.6,3.4-14.5
				C581.5,202.3,587.5,198,593.2,193.6z"/>
		</g>
		<g>
			<path class="st2" d="M637,39c1.1,3.4,2.1,6.8,3.1,10.3c-2.7,4.7-5.6,9.4-8.8,14c-0.7-3.5-1.4-7-2.2-10.5
				C632,48.3,634.6,43.7,637,39z"/>
		</g>
		<g>
			<path class="st2" d="M684,196.8c-3.7-1.6-7.5-3.3-11.2-5.1c-2-5.9-3.8-11.9-5.3-18.1c3.5,2.1,7,4.1,10.6,6
				C679.8,185.5,681.8,191.2,684,196.8z"/>
		</g>
		<g>
			<path class="st2" d="M721.4,136.8c0,1.5,0,3,0,4.6c-1.7,1.6-3.4,3.1-5.3,4.6c0.2-1.5,0.3-3,0.4-4.5
				C718.3,140,719.9,138.4,721.4,136.8z"/>
		</g>
		<g>
			<path class="st2" d="M779.2,133.1c-6,0-12.1,0-18.1-0.2c-6.2-6.7-12.3-13.8-18-21.3c6,0.7,11.9,1.3,17.9,1.8
				C766.8,120.4,772.9,127,779.2,133.1z"/>
		</g>
		<g>
			<path class="st2" d="M793.1,210.5c-5.9-1.9-11.7-3.9-17.5-6c-3.9-8.5-7.5-17.3-10.6-26.4c5.6,2.6,11.2,5.1,16.8,7.5
				C785.2,194.2,789,202.5,793.1,210.5z"/>
		</g>
		<g>
			<path class="st2" d="M740.5,190.6c-0.1,1.5-0.3,3.1-0.5,4.6c-1.9,1.4-3.8,2.8-5.9,4.1c0.3-1.5,0.6-3,0.9-4.5
				C736.9,193.5,738.8,192.1,740.5,190.6z"/>
		</g>
		<g>
			<path class="st2" d="M686.4,327.2c-2.8-1.1-5.5-2.2-8.3-3.3c-1.7-4.2-3.2-8.5-4.5-13c2.6,1.4,5.3,2.7,7.9,4
				C683,319.2,684.6,323.3,686.4,327.2z"/>
		</g>
		<g>
			<path class="st2" d="M647.2,274.2c0.5,6.2,0.9,12.4,1.2,18.7c-6.4,6.9-13.2,13.7-20.4,20.2c0.2-6.2,0.4-12.4,0.4-18.6
				C635.1,287.9,641.4,281.1,647.2,274.2z"/>
		</g>
		<g>
			<path class="st2" d="M710.8,282.6c-0.6,2.1-1.3,4.3-1.9,6.4c-3,1.5-6.2,2.9-9.4,4.2c0.9-2.1,1.7-4.1,2.5-6.2
				C705,285.7,707.9,284.2,710.8,282.6z"/>
		</g>
		<g>
			<path class="st2" d="M549.6,420.9c-0.8,1.5-1.5,3.1-2.4,4.6c-2.5,0.7-5.1,1.4-7.7,1.9c0.9-1.4,1.9-2.9,2.7-4.3
				C544.8,422.5,547.2,421.8,549.6,420.9z"/>
		</g>
		<g>
			<path class="st2" d="M509.3,162.4c-4.8-3.4-9.5-6.9-14.3-10.5c-1.1-8.8-1.9-17.9-2.2-27.1c4.3,3.9,8.7,7.8,13.2,11.6
				C506.7,145.3,507.8,154,509.3,162.4z"/>
		</g>
		<g>
			<path class="st2" d="M453.4,285.5c-2,0.1-3.9,0.2-5.9,0.3c-2.1-2.1-4.2-4.2-6.2-6.6c1.9,0.1,3.9,0.2,5.8,0.3
				C449.1,281.6,451.2,283.6,453.4,285.5z"/>
		</g>
		<g>
			<path class="st2" d="M391.3,393.3c0.7,1.8,1.3,3.7,1.9,5.6c-1.4,2.7-2.9,5.3-4.5,7.9c-0.4-1.9-0.9-3.8-1.4-5.7
				C388.8,398.5,390.1,395.9,391.3,393.3z"/>
		</g>
		<g>
			<path class="st2" d="M362.2,340.4c-5.5-1.3-11-2.6-16.4-4.1c-4.2-7.4-8.2-15.2-11.8-23.2c5.3,1.9,10.6,3.8,15.9,5.5
				C353.7,326.2,357.8,333.4,362.2,340.4z"/>
		</g>
		<g>
			<path class="st2" d="M310.3,270.1c-2.9,5.2-5.9,10.3-9,15.4c-8.8,2.1-17.8,3.7-26.9,5c3.5-4.8,6.9-9.6,10.3-14.4
				C293.4,274.4,302,272.4,310.3,270.1z"/>
		</g>
		<g>
			<path class="st0" d="M261,399.7c-5.4,3.7-10.8,7.3-16.3,10.8c-9.6-2.2-19.3-4.8-29-8c5.7-3,11.4-6.1,17.1-9.3
				C242.2,395.9,251.7,398.1,261,399.7z"/>
		</g>
		<g>
			<path class="st2" d="M261.1,334.1c-1.1,2.7-2.2,5.5-3.3,8.2c-4.2,1.6-8.5,3.1-12.9,4.4c1.4-2.6,2.7-5.2,4-7.8
				C253.1,337.4,257.1,335.8,261.1,334.1z"/>
		</g>
		<g>
			<path class="st2" d="M146.6,371c-1.8,0-3.6-0.1-5.4-0.2c-1.8-2-3.6-4.2-5.2-6.5c1.8,0.3,3.6,0.5,5.3,0.7
				C143,367.1,144.8,369.1,146.6,371z"/>
		</g>
		<g>
			<path class="st0" d="M100.9,385.2c-1.6,5.3-3.2,10.6-5,15.9c-7.6,3.7-15.4,7.2-23.5,10.3c2.2-5.1,4.3-10.2,6.3-15.3
				C86.4,392.8,93.8,389.1,100.9,385.2z"/>
		</g>
		<g>
			<path class="st2" d="M54.1,428.9c-5.9-1.9-11.8-4-17.6-6.1c-3.9-8.6-7.4-17.4-10.6-26.6c5.6,2.6,11.2,5.2,16.9,7.6
				C46.2,412.5,50,420.9,54.1,428.9z"/>
		</g>
		<g>
			<path class="st1" d="M109.1,147.3c-1.3,5.8-2.6,11.5-4.1,17.2c-7.7,4.5-15.8,8.7-24.1,12.6c1.9-5.5,3.8-11.1,5.6-16.7
				C94.3,156.4,101.9,152,109.1,147.3z"/>
		</g>
		<g>
			<path class="st1" d="M180.3,75.5c-2.4-1.6-4.8-3.3-7.2-5c-0.7-4.4-1.2-8.8-1.4-13.4c2.2,1.9,4.4,3.7,6.7,5.6
				C178.8,67,179.4,71.3,180.3,75.5z"/>
		</g>
		<g>
			<path class="st1" d="M202.3,192.4c1.2,4.9,2.3,9.8,3.3,14.8c-4.2,6.4-8.8,12.6-13.8,18.8c-0.6-5-1.3-10-2-14.9
				C194.4,204.9,198.5,198.7,202.3,192.4z"/>
		</g>
		<g>
			<path class="st1" d="M293.7,80.5c-2.9,2.9-5.9,5.8-8.9,8.6c-6.2-0.3-12.6-0.8-19-1.7c3.2-2.5,6.4-5.1,9.5-7.7
				C281.6,80.3,287.7,80.5,293.7,80.5z"/>
		</g>
		<g>
			<path class="st1" d="M307.2,251.3c-6,2.8-12,5.6-18.1,8.2c-9.3-3.8-18.6-8-27.8-12.8c6.3-2.1,12.5-4.2,18.6-6.5
				C289,244.4,298.1,248.1,307.2,251.3z"/>
		</g>
		<g>
			<path class="st1" d="M366.2,108.3c-3.2-1.1-6.4-2.3-9.6-3.5c-2.1-4.7-4-9.6-5.7-14.7c3.1,1.5,6.1,2.9,9.2,4.3
				C362,99.2,364,103.8,366.2,108.3z"/>
		</g>
		<g>
			<path class="st1" d="M397.1,167.6c-0.4,3.4-0.9,6.7-1.4,10.1c-4.2,3-8.6,5.9-13.1,8.6c0.8-3.3,1.6-6.6,2.3-9.9
				C389.2,173.6,393.2,170.7,397.1,167.6z"/>
		</g>
		<g>
			<path class="st1" d="M462.5,346.9c-1.7-0.2-3.5-0.4-5.2-0.6c-1.6-2.1-3.2-4.3-4.6-6.7c1.7,0.4,3.4,0.7,5.1,1
				C459.3,342.8,460.8,344.9,462.5,346.9z"/>
		</g>
		<g>
			<path class="st1" d="M481.5,266.9c0.1,6.4,0.1,12.8,0,19.3c-7,6.7-14.5,13.2-22.4,19.4c0.7-6.4,1.2-12.7,1.7-19
				C468.1,280.2,475,273.6,481.5,266.9z"/>
		</g>
		<g>
			<path class="st1" d="M556.9,119.6c-2.4,4-4.9,8-7.5,11.9c-7,1.4-14.1,2.5-21.4,3.3c2.9-3.7,5.7-7.4,8.5-11.1
				C543.4,122.6,550.3,121.3,556.9,119.6z"/>
		</g>
		<g>
			<path class="st1" d="M577.1,242.8c-0.6,5.7-1.3,11.4-2.1,17c-7,5.2-14.3,10.1-21.9,14.8c1.3-5.6,2.5-11.1,3.5-16.7
				C563.8,253.1,570.6,248,577.1,242.8z"/>
		</g>
		<g>
			<path class="st1" d="M643,137.7c-4.9,0.6-9.9,1.2-14.8,1.6c-5.8-4.9-11.4-10.1-16.8-15.6c5,0,9.9-0.1,14.8-0.3
				C631.6,128.5,637.3,133.3,643,137.7z"/>
		</g>
		<g>
			<path class="st1" d="M656.2,400.8c-5.4-1.9-10.8-4-16.2-6.1c-3.4-8-6.5-16.4-9.3-25c5.1,2.6,10.3,5,15.5,7.4
				C649.2,385.3,652.5,393.2,656.2,400.8z"/>
		</g>
		<g>
			<path class="st1" d="M742.2,395.1c-1.9,3.6-3.9,7.1-5.9,10.6c-5.9,1.5-12,2.8-18.3,3.9c2.3-3.3,4.6-6.6,6.8-10
				C730.8,398.3,736.6,396.8,742.2,395.1z"/>
		</g>
		<g>
			<path class="st1" d="M766.6,316.2c-1.9-0.1-3.8-0.3-5.7-0.5c-1.8-2.3-3.5-4.6-5.2-7.1c1.9,0.4,3.7,0.7,5.6,1
				C763,311.9,764.7,314.1,766.6,316.2z"/>
		</g>
		<g>
			<path class="st1" d="M780.6,356.1c-4,1-8,2-12.1,2.9c-5.3-3.4-10.4-7.1-15.5-11.1c4.1-0.5,8.2-1.1,12.2-1.8
				C770.3,349.7,775.4,353.1,780.6,356.1z"/>
		</g>
		<g>
			<path class="st0" d="M779.3,54.3c-5.4-2.1-10.8-4.2-16.2-6.5c-3.3-8.2-6.2-16.6-8.8-25.3c5.1,2.7,10.2,5.3,15.4,7.8
				C772.6,38.6,775.8,46.6,779.3,54.3z"/>
		</g>
		<g>
			<path class="st0" d="M776.4,258.4c-4.5,4-9.2,7.9-13.9,11.7c-9.1-1-18.3-2.4-27.6-4.3c5-3.4,9.9-6.9,14.7-10.4
				C758.7,256.9,767.6,257.9,776.4,258.4z"/>
		</g>
		<g>
			<path class="st0" d="M694.7,111.5c-4-1.7-8-3.5-12-5.4c-2.2-6.2-4.1-12.7-5.8-19.3c3.8,2.2,7.5,4.3,11.4,6.4
				C690.1,99.5,692.3,105.6,694.7,111.5z"/>
		</g>
		<g>
			<path class="st0" d="M627.9,185.9c-3.1,5.1-6.3,10.2-9.6,15.2c-8.9,1.8-18.1,3.2-27.4,4.2c3.7-4.7,7.3-9.4,10.8-14.2
				C610.7,189.8,619.4,188,627.9,185.9z"/>
		</g>
		<g>
			<path class="st0" d="M560.1,56.9c-1.8-0.6-3.6-1.3-5.4-2c-1.2-2.7-2.2-5.4-3.1-8.2c1.7,0.8,3.4,1.6,5.1,2.4
				C557.7,51.8,558.8,54.4,560.1,56.9z"/>
		</g>
		<g>
			<path class="st0" d="M516.2,156.9c0.7,4.2,1.3,8.5,1.8,12.7c-4,5.1-8.3,10.1-12.9,14.9c-0.2-4.3-0.4-8.5-0.7-12.7
				C508.6,166.9,512.5,162,516.2,156.9z"/>
		</g>
		<g>
			<path class="st0" d="M467.4,118.5c-2.1,2-4.3,3.9-6.5,5.9c-4.4-0.3-8.8-0.8-13.3-1.6c2.3-1.7,4.6-3.5,6.9-5.2
				C458.9,118,463.2,118.4,467.4,118.5z"/>
		</g>
		<g>
			<path class="st0" d="M402.7,57.9c-1.6-0.7-3.1-1.3-4.7-2c-0.9-2.4-1.7-4.9-2.4-7.5c1.5,0.8,3,1.6,4.5,2.4
				C400.8,53.2,401.7,55.6,402.7,57.9z"/>
		</g>
		<g>
			<path class="st0" d="M362.3,38.2c-5.8-0.7-11.5-1.5-17.3-2.5c-5.1-7.2-10-14.7-14.6-22.6c5.6,1.4,11.3,2.7,16.9,4
				C352,24.5,357,31.5,362.3,38.2z"/>
		</g>
		<g>
			<path class="st0" d="M311,69.8c-6.1-2.2-12.2-4.5-18.2-6.8c-3.8-9-7.3-18.4-10.4-28c5.8,2.9,11.6,5.7,17.4,8.4
				C303.1,52.4,306.9,61.3,311,69.8z"/>
		</g>
		<g>
			<path class="st0" d="M256.5,60.2c-4.1,0.5-8.3,1-12.5,1.4c-4.9-4.1-9.7-8.4-14.3-13.1c4.2,0,8.3-0.2,12.5-0.3
				C246.9,52.5,251.7,56.5,256.5,60.2z"/>
		</g>
		<g>
			<path class="st0" d="M214.5,155.2c-0.5,4.5-1.1,9-1.8,13.6c-5.6,4.1-11.4,7.9-17.6,11.6c1.1-4.4,2.1-8.8,3-13.2
				C203.9,163.3,209.3,159.3,214.5,155.2z"/>
		</g>
		<g>
			<path class="st0" d="M148.1,31.5c0.6,2.1,1.2,4.3,1.8,6.5c-1.7,2.9-3.6,5.8-5.7,8.6c-0.4-2.2-0.8-4.4-1.2-6.6
				C144.8,37.2,146.6,34.4,148.1,31.5z"/>
		</g>
		<g>
			<path class="st0" d="M126.4,238c-0.4,2.1-0.8,4.3-1.3,6.4c-2.8,1.8-5.7,3.4-8.7,5c0.6-2.1,1.3-4.1,1.8-6.2
				C121,241.6,123.8,239.8,126.4,238z"/>
		</g>
		<g>
			<path class="st0" d="M82.6,107.8c-3.8-1.4-7.6-2.9-11.3-4.5c-2.3-5.7-4.4-11.6-6.2-17.7c3.6,1.9,7.2,3.7,10.8,5.5
				C77.9,96.8,80.2,102.4,82.6,107.8z"/>
		</g>
		<g>
			<path class="st0" d="M16.6,80.6c0.4,1.9,0.7,3.7,1,5.6c-1.7,2.3-3.5,4.6-5.4,6.8c-0.1-1.9-0.3-3.8-0.5-5.6
				C13.4,85.2,15.1,83,16.6,80.6z"/>
		</g>
		<g>
			<path class="st2" d="M582.8,111.4c-2.8-0.5-5.6-0.9-8.4-1.5c-2.4-3.6-4.6-7.3-6.7-11.2c2.7,0.8,5.4,1.5,8.2,2.2
				C578,104.5,580.3,108,582.8,111.4z"/>
		</g>
		<g>
			<path class="st2" d="M528.1,74.7c-1.7,3.4-3.5,6.8-5.4,10.2c-5.6,1.6-11.4,2.9-17.3,4c2.1-3.2,4.2-6.4,6.2-9.6
				C517.3,78,522.8,76.4,528.1,74.7z"/>
		</g>
		<g>
			<path class="st2" d="M603.1,159.1c-6,1.6-12,3-18.1,4.4c-7.9-5.1-15.7-10.6-23.3-16.6c6.1-0.8,12.2-1.7,18.2-2.7
				C587.6,149.6,595.3,154.6,603.1,159.1z"/>
		</g>
		<g>
			<path class="st2" d="M455.1,85.3c-4.3,3.6-8.6,7.2-13,10.7c-8.4-1-17-2.4-25.5-4.3c4.7-3.1,9.2-6.2,13.8-9.4
				C438.6,83.6,446.9,84.7,455.1,85.3z"/>
		</g>
		<g>
			<path class="st2" d="M395,363.7c-1.7-0.9-3.3-1.8-4.9-2.7c-0.7-2.7-1.4-5.6-1.8-8.5c1.5,1.1,3.1,2.1,4.7,3.1
				C393.4,358.4,394.1,361.1,395,363.7z"/>
		</g>
		<g>
			<path class="st2" d="M341.5,242.2c-1.8,4.7-3.7,9.3-5.7,14c-7.1,2.8-14.4,5.3-22,7.5c2.4-4.4,4.7-8.9,6.9-13.3
				C327.9,247.9,334.8,245.2,341.5,242.2z"/>
		</g>
		<g>
			<path class="st2" d="M311.8,216.4c-2.4,1.7-4.8,3.4-7.3,5c-4.4-0.9-8.8-2-13.2-3.4c2.6-1.4,5.1-2.8,7.7-4.3
				C303.3,214.8,307.6,215.7,311.8,216.4z"/>
		</g>
		<g>
			<path class="st2" d="M230.4,165.6c-2.9-0.7-5.8-1.4-8.7-2.2c-2.2-4-4.3-8.1-6.2-12.4c2.8,1,5.6,2,8.4,3
				C225.9,158,228,161.9,230.4,165.6z"/>
		</g>
		<g>
			<path class="st2" d="M182.3,343.7c-0.5,5.4-1.1,10.9-1.7,16.3c-6.6,5-13.4,9.9-20.7,14.4c1.1-5.3,2.2-10.6,3.1-16
				C169.8,353.7,176.2,348.8,182.3,343.7z"/>
		</g>
		<g>
			<path class="st2" d="M128.4,196.2c0.3,5.3,0.6,10.7,0.7,16c-5.6,5.8-11.6,11.5-17.9,17c0.3-5.3,0.6-10.6,0.7-15.9
				C117.8,207.8,123.3,202.1,128.4,196.2z"/>
		</g>
		<g>
			<path class="st2" d="M84.1,357.4c-6.4-1.6-12.7-3.4-19-5.2c-4.7-8.8-9.1-17.9-13.1-27.3c6.1,2.4,12.2,4.6,18.4,6.8
				C74.5,340.6,79.1,349.2,84.1,357.4z"/>
		</g>
		<g>
			<path class="st2" d="M25.9,119.9c0.8,5.1,1.5,10.2,2.1,15.3c-4.9,6.1-10.1,12-15.6,17.8c-0.2-5.1-0.4-10.2-0.7-15.3
				C16.8,131.8,21.5,125.9,25.9,119.9z"/>
		</g>
		<g>
			<path class="st2" d="M479.7,60.2c-4.5-2.2-8.9-4.6-13.3-6.9c-2.1-7.3-3.9-14.8-5.4-22.5c4.2,2.8,8.3,5.4,12.6,8
				C475.3,46.1,477.4,53.3,479.7,60.2z"/>
		</g>
	</g>
</g>
</svg>
